{
    "asset" : {
        "generator" : "Khronos glTF Blender I/O v1.1.45",
        "version" : "2.0"
    },
    "scene" : 0,
    "scenes" : [
        {
            "name" : "Scene",
            "nodes" : [
                0,
                1,
                2
            ]
        }
    ],
    "nodes" : [
        {
            "mesh" : 0,
            "name" : "Globe",
            "rotation" : [
                -0.5,
                0.5,
                -0.4999999701976776,
                0.5
            ]
        },
        {
            "mesh" : 1,
            "name" : "Iris",
            "rotation" : [
                -0.5,
                0.5,
                -0.4999999701976776,
                0.5
            ],
            "translation" : [
                0,
                0,
                -0.8819209933280945
            ]
        },
        {
            "mesh" : 2,
            "name" : "Pupil",
            "rotation" : [
                0.5,
                -0.5,
                -0.4999999701976776,
                0.5
            ],
            "translation" : [
                0,
                0,
                -0.6331515908241272
            ]
        }
    ],
    "materials" : [
        {
            "doubleSided" : true,
            "emissiveFactor" : [
                0.1574343740940094,
                0.1574343740940094,
                0.1574343740940094
            ],
            "name" : "Material.001",
            "pbrMetallicRoughness" : {
                "baseColorFactor" : [
                    1,
                    1,
                    1,
                    1
                ],
                "metallicFactor" : 0,
                "roughnessFactor" : 0
            }
        },
        {
            "doubleSided" : true,
            "emissiveFactor" : [
                0,
                0,
                0
            ],
            "name" : "IrisColor",
            "pbrMetallicRoughness" : {
                "baseColorFactor" : [
                    0.17025186121463776,
                    0.3436136245727539,
                    0.8000000715255737,
                    1
                ],
                "metallicFactor" : 0,
                "roughnessFactor" : 0.5
            }
        },
        {
            "doubleSided" : true,
            "emissiveFactor" : [
                0,
                0,
                0
            ],
            "name" : "Pupil",
            "pbrMetallicRoughness" : {
                "baseColorFactor" : [
                    0,
                    0,
                    0,
                    1
                ],
                "metallicFactor" : 0,
                "roughnessFactor" : 0.5
            }
        }
    ],
    "meshes" : [
        {
            "name" : "Sphere",
            "primitives" : [
                {
                    "attributes" : {
                        "POSITION" : 0,
                        "NORMAL" : 1,
                        "TEXCOORD_0" : 2
                    },
                    "indices" : 3,
                    "material" : 0
                }
            ]
        },
        {
            "name" : "Circle.001",
            "primitives" : [
                {
                    "attributes" : {
                        "POSITION" : 4,
                        "NORMAL" : 5,
                        "TEXCOORD_0" : 6
                    },
                    "indices" : 7,
                    "material" : 1
                }
            ]
        },
        {
            "name" : "Cone",
            "primitives" : [
                {
                    "attributes" : {
                        "POSITION" : 8,
                        "NORMAL" : 9,
                        "TEXCOORD_0" : 10
                    },
                    "indices" : 11,
                    "material" : 2
                }
            ]
        }
    ],
    "accessors" : [
        {
            "bufferView" : 0,
            "componentType" : 5126,
            "count" : 6848,
            "max" : [
                1.0000005960464478,
                0.8819212317466736,
                1.000001072883606
            ],
            "min" : [
                -1.000000238418579,
                -1,
                -1
            ],
            "type" : "VEC3"
        },
        {
            "bufferView" : 1,
            "componentType" : 5126,
            "count" : 6848,
            "type" : "VEC3"
        },
        {
            "bufferView" : 2,
            "componentType" : 5126,
            "count" : 6848,
            "type" : "VEC2"
        },
        {
            "bufferView" : 3,
            "componentType" : 5123,
            "count" : 10176,
            "type" : "SCALAR"
        },
        {
            "bufferView" : 4,
            "componentType" : 5126,
            "count" : 178,
            "max" : [
                0.47099998593330383,
                0,
                0.47099998593330383
            ],
            "min" : [
                -0.47099998593330383,
                0,
                -0.47099998593330383
            ],
            "type" : "VEC3"
        },
        {
            "bufferView" : 5,
            "componentType" : 5126,
            "count" : 178,
            "type" : "VEC3"
        },
        {
            "bufferView" : 6,
            "componentType" : 5126,
            "count" : 178,
            "type" : "VEC2"
        },
        {
            "bufferView" : 7,
            "componentType" : 5123,
            "count" : 192,
            "type" : "SCALAR"
        },
        {
            "bufferView" : 8,
            "componentType" : 5126,
            "count" : 256,
            "max" : [
                0.15000000596046448,
                0.25,
                0.15000000596046448
            ],
            "min" : [
                -0.15000000596046448,
                -0.25,
                -0.15000000596046448
            ],
            "type" : "VEC3"
        },
        {
            "bufferView" : 9,
            "componentType" : 5126,
            "count" : 256,
            "type" : "VEC3"
        },
        {
            "bufferView" : 10,
            "componentType" : 5126,
            "count" : 256,
            "type" : "VEC2"
        },
        {
            "bufferView" : 11,
            "componentType" : 5123,
            "count" : 378,
            "type" : "SCALAR"
        }
    ],
    "bufferViews" : [
        {
            "buffer" : 0,
            "byteLength" : 82176,
            "byteOffset" : 0
        },
        {
            "buffer" : 0,
            "byteLength" : 82176,
            "byteOffset" : 82176
        },
        {
            "buffer" : 0,
            "byteLength" : 54784,
            "byteOffset" : 164352
        },
        {
            "buffer" : 0,
            "byteLength" : 20352,
            "byteOffset" : 219136
        },
        {
            "buffer" : 0,
            "byteLength" : 2136,
            "byteOffset" : 239488
        },
        {
            "buffer" : 0,
            "byteLength" : 2136,
            "byteOffset" : 241624
        },
        {
            "buffer" : 0,
            "byteLength" : 1424,
            "byteOffset" : 243760
        },
        {
            "buffer" : 0,
            "byteLength" : 384,
            "byteOffset" : 245184
        },
        {
            "buffer" : 0,
            "byteLength" : 3072,
            "byteOffset" : 245568
        },
        {
            "buffer" : 0,
            "byteLength" : 3072,
            "byteOffset" : 248640
        },
        {
            "buffer" : 0,
            "byteLength" : 2048,
            "byteOffset" : 251712
        },
        {
            "buffer" : 0,
            "byteLength" : 756,
            "byteOffset" : 253760
        }
    ],
    "buffers" : [
        {
            "byteLength" : 254516,
            "uri" : "data:application/octet-stream;base64,"
        }
    ]
}
